<svg xmlns="http://www.w3.org/2000/svg" width="1200" height="720" viewBox="0 0 1200 720">
  <rect width="1200" height="720" fill="#efefeb"/>
  <rect x="18" y="18" width="1164" height="684" rx="10" fill="none" stroke="#111" stroke-width="5"/>
  <line x1="830" y1="45" x2="830" y2="675" stroke="#222" stroke-width="2"/>
  <text x="60" y="82" font-family="Arial" font-size="38" font-weight="700">BOVEN ONS</text>
  <text x="60" y="118" font-family="Arial" font-size="22">LIVE VLUCHTINFORMATIE</text>
  <g transform="translate(105 205)">
    <path d="M40 150 L475 135 L665 75 L735 98 L642 145 L770 160 L700 185 L485 164 L245 220 L190 207 L340 160 L40 170 Z" fill="#ddd" stroke="#111" stroke-width="5"/>
    <path d="M165 153 L100 45 L145 42 L255 150 Z" fill="#ccc" stroke="#111" stroke-width="5"/>
    <ellipse cx="415" cy="188" rx="62" ry="28" fill="#bbb" stroke="#111" stroke-width="5"/>
    <ellipse cx="555" cy="175" rx="57" ry="26" fill="#bbb" stroke="#111" stroke-width="5"/>
    <text x="225" y="155" font-family="Arial" font-size="30" font-weight="700">KLM</text>
  </g>
  <path d="M60 535 C210 480 340 520 465 485 C600 445 710 490 815 450" fill="none" stroke="#999" stroke-width="4"/>
  <text x="60" y="640" font-family="Arial" font-size="22">☁ LICHT BEWOLKT  ·  16°C</text>
  <rect x="860" y="58" width="280" height="135" rx="12" fill="none" stroke="#222" stroke-width="2"/>
  <text x="885" y="88" font-family="Arial" font-size="17">VLUCHT</text>
  <text x="885" y="135" font-family="Arial" font-size="40" font-weight="700">KLM1287</text>
  <text x="885" y="170" font-family="Arial" font-size="20">Boeing 737-800</text>
  <text x="875" y="250" font-family="Arial" font-size="18">VAN</text>
  <text x="875" y="292" font-family="Arial" font-size="36" font-weight="700">AMS</text>
  <text x="1010" y="285" font-family="Arial" font-size="36">→</text>
  <text x="1080" y="250" font-family="Arial" font-size="18">NAAR</text>
  <text x="1060" y="292" font-family="Arial" font-size="36" font-weight="700">BCN</text>
  <line x1="860" y1="330" x2="1140" y2="330" stroke="#222"/>
  <text x="875" y="380" font-family="Arial" font-size="20">HOOGTE</text><text x="1040" y="380" font-family="Arial" font-size="20">10.860 m</text>
  <text x="875" y="425" font-family="Arial" font-size="20">SNELHEID</text><text x="1040" y="425" font-family="Arial" font-size="20">824 km/u</text>
  <text x="875" y="470" font-family="Arial" font-size="20">AFSTAND</text><text x="1040" y="470" font-family="Arial" font-size="20">1,9 km</text>
  <rect x="860" y="515" width="280" height="135" rx="10" fill="none" stroke="#222" stroke-width="2"/>
  <text x="880" y="550" font-family="Arial" font-size="17">BESTEMMING</text>
  <text x="880" y="592" font-family="Arial" font-size="28" font-weight="700">BARCELONA</text>
  <text x="880" y="625" font-family="Arial" font-size="18">Sagrada Família  🇪🇸</text>
</svg>